#!OML:ASF F:\VICON\USERDATA\Patient Classification 1\PLAYGROUND\JustinFriday\JustinFriday.ASF
:FULLY-SPECIFIED
:DEGREES
3947
root -5.97294 17.2902 10.4168 282.434 85.3736 -41.8018
lowerback 17.5338 -0.4952 0.416672
upperback -1.9815 -0.324537 1.8489
thorax -12.0857 -0.0906833 1.89572
lowerneck 3.15457 -7.61984 -12.7823
upperneck 20.4049 -10.69 5.83223
head 6.74157 -5.54536 3.41771
rclavicle -3.77691e-015 2.94201e-014
rhumerus 57.5434 -5.61134 -68.6891
rradius 91.0378
rwrist 10.0268
rhand 4.86501 -382.228
rfingers 7.12502
rthumb 30.2412 -409.771
lclavicle -3.77691e-015 2.94201e-014
lhumerus 56.4728 4.71072 65.6563
lradius 91.7866
lwrist -18.051
lhand 15.403 0.615931
lfingers 7.12502
lthumb 40.2309 25.7719
rfemur 0.580129 -2.92784 21.1537
rtibia 60.7064
rfoot -6.08201 -10.6861
rtoes 12.1206
lfemur 5.29447 7.11826 -3.46537
ltibia 60.8951
lfoot -8.93185 -6.70187
ltoes -0.843598
3948
root -5.81294 17.321 10.4119 280.913 85.6811 -42.6349
lowerback 17.501 -0.434291 0.296585
upperback -1.72199 -0.297882 1.64691
thorax -11.772 -0.0817535 1.72746
lowerneck 2.61121 -7.94831 -12.0737
upperneck 20.6889 -11.0429 5.38971
head 6.89427 -5.6858 3.11018
rclavicle -2.98177e-016 -6.85807e-015
rhumerus 57.3766 -5.87061 -68.5962
rradius 91.4492
rwrist 9.70648
rhand 4.36635 -382.768
rfingers 7.12502
rthumb 29.7654 -410.397
lclavicle -2.98177e-016 -6.85807e-015
lhumerus 56.6221 4.47227 65.518
lradius 92.0596
lwrist -17.9308
lhand 15.3824 0.535754
lfingers 7.12502
lthumb 40.2115 25.6976
rfemur 0.396473 -2.97682 20.8369
rtibia 59.1553
rfoot -6.22455 -10.5651
rtoes 13.6047
lfemur 5.07955 7.13636 -3.87673
ltibia 59.7441
lfoot -8.29138 -6.55596
ltoes -0.749751
3949
root -5.65034 17.3555 10.4179 280.458 86.2983 -42.4166
lowerback 17.5199 -0.44798 -0.503206
upperback -1.87122 -0.499332 1.58201
thorax -11.9405 -0.125877 2.17027
lowerneck 3.60635 -7.87353 -12.2449
upperneck 20.5701 -11.0232 5.38181
head 6.69673 -5.69915 3.1811
rclavicle 5.06901e-015 -4.17448e-015
rhumerus 56.6323 -5.24496 -68.7947
rradius 91.7705
rwrist 9.47277
rhand 3.89142 -383.242
rfingers 7.12502
rthumb 29.312 -410.951
lclavicle 5.06901e-015 -4.17448e-015
lhumerus 55.8438 4.397 65.549
lradius 92.3418
lwrist -17.9031
lhand 15.5522 0.310185
lfingers 7.12502
lthumb 40.3712 25.4232
rfemur 0.232861 -2.89208 20.2787
rtibia 57.6382
rfoot -6.14571 -10.5995
rtoes 14.3815
lfemur 4.89397 7.2295 -4.62545
ltibia 58.5794
lfoot -7.73858 -6.23417
ltoes -1.54887
3950
root -5.48987 17.3941 10.4227 281.637 87.0051 -40.5043
lowerback 17.4784 -0.344474 -1.31143
upperback -1.71646 -0.558024 1.41451
thorax -11.7325 -0.111667 2.45819
lowerneck 3.7556 -7.95126 -12.2321
upperneck 20.6169 -11.135 5.31122
head 6.6937 -5.75813 3.15399
rclavicle 4.17448e-015 1.98785e-016
rhumerus 56.2331 -5.06035 -69.8082
rradius 91.9823
rwrist 9.9036
rhand 3.93829 -383.144
rfingers 7.12502
rthumb 29.3568 -410.845
lclavicle 4.17448e-015 1.98785e-016
lhumerus 55.7717 4.12258 65.9756
lradius 92.4664
lwrist -18.204
lhand 15.8253 -0.235556
lfingers 7.12502
lthumb 40.6279 24.7979
rfemur 0.186142 -2.78871 19.6035
rtibia 56.0969
rfoot -5.43945 -10.7802
rtoes 11.3857
lfemur 4.80225 7.34204 -5.50584
ltibia 57.3806
lfoot -7.10148 -5.8494
ltoes -2.81687
3951
root -5.33499 17.4316 10.4165 280.65 86.8222 -40.7823
lowerback 17.5045 -0.319952 -1.10391
upperback -1.6281 -0.46071 1.56306
thorax -11.6531 -0.0739045 2.47623
lowerneck 4.08757 -7.78099 -12.352
upperneck 20.1091 -10.9189 5.25452
head 6.45758 -5.67279 3.18792
rclavicle 3.27995e-015 -4.96962e-015
rhumerus 56.0502 -5.18898 -67.9196
rradius 92.538
rwrist 8.76493
rhand 3.03866 -384.685
rfingers 7.12502
rthumb 28.4975 -412.535
lclavicle 3.27995e-015 -4.96962e-015
lhumerus 55.3646 3.92815 66.3485
lradius 92.6606
lwrist -18.3878
lhand 15.5821 -0.377576
lfingers 7.12502
lthumb 40.3993 24.7268
rfemur 0.120219 -2.67512 19.8709
rtibia 54.4404
rfoot -4.81807 -10.7321
rtoes 9.49214
lfemur 4.65882 7.536 -5.33344
ltibia 56.2565
lfoot -6.19188 -5.6186
ltoes -4.30732
3952
root -5.18175 17.467 10.4062 277.438 85.4945 -43.514
lowerback 17.4488 -0.46624 0.297412
upperback -1.69142 -0.292704 2.01706
thorax -11.7064 -0.0624957 2.13274
lowerneck 4.50541 -8.46233 -12.8703
upperneck 21.2854 -11.8094 4.73254
head 6.87077 -6.17451 3.03996
rclavicle 1.78906e-015 5.96354e-015
rhumerus 55.6826 -4.85972 -69.1391
rradius 92.2671
rwrist 9.74484
rhand 3.6022 -383.358
rfingers 7.12502
rthumb 29.0358 -411.116
lclavicle 1.78906e-015 5.96354e-015
lhumerus 54.6877 3.94127 65.8875
lradius 93.0639
lwrist -17.8738
lhand 15.0036 0.246614
lfingers 7.12502
lthumb 39.855 25.5162
rfemur -0.174473 -2.36864 21.5001
rtibia 52.6822
rfoot -4.83104 -10.6994
rtoes 12.0172
lfemur 4.25143 7.80684 -3.79733
ltibia 55.164
lfoot -4.96984 -5.6681
ltoes -4.31377
3953
root -5.02491 17.4982 10.3954 275.757 84.8667 -44.6001
lowerback 17.4782 -0.794289 0.936033
upperback -1.59031 -0.549144 2.32451
thorax -11.6048 -0.208703 2.1757
lowerneck 3.89231 -8.01573 -11.5347
upperneck 20.8442 -10.9013 3.31895
head 6.58459 -5.72471 2.42535
rclavicle -2.48481e-014 1.72943e-014
rhumerus 55.925 -4.28761 -68.4222
rradius 92.6152
rwrist 9.40453
rhand 3.72728 -383.509
rfingers 7.12502
rthumb 29.1553 -411.246
lclavicle -2.48481e-014 1.72943e-014
lhumerus 53.9006 4.76311 64.1642
lradius 93.8028
lwrist -16.7706
lhand 14.4351 1.5805
lfingers 7.12502
lthumb 39.3196 27.0082
rfemur -0.30059 -2.12365 22.3122
rtibia 50.9858
rfoot -4.86762 -10.8966
rtoes 15.4297
lfemur 4.04779 7.84237 -3.16727
ltibia 53.8965
lfoot -3.55673 -5.71799
ltoes -3.28199
3954
root -4.87017 17.5328 10.3963 276.088 85.5253 -43.6118
lowerback 17.4923 -0.639932 0.432169
upperback -1.50156 -0.50731 1.91983
thorax -11.5111 -0.177332 2.00312
lowerneck 5.27622 -8.14376 -11.8501
upperneck 19.7759 -11.3798 4.26829
head 6.11668 -5.93398 2.81864
rclavicle 8.94531e-016 5.96354e-015
rhumerus 55.5785 -4.75342 -68.2189
rradius 92.917
rwrist 9.21497
rhand 3.72839 -383.814
rfingers 7.12502
rthumb 29.1564 -411.551
lclavicle 8.94531e-016 5.96354e-015
lhumerus 53.7677 4.35444 63.0537
lradius 94.3426
lwrist -16.06
lhand 14.3673 2.22033
lfingers 7.12502
lthumb 39.2558 27.6666
rfemur -0.367876 -2.01171 21.6443
rtibia 49.3678
rfoot -4.29676 -11.0986
rtoes 15.8787
lfemur 3.9746 7.70932 -4.12294
ltibia 52.4654
lfoot -1.86542 -5.51664
ltoes -0.595429
3955
root -4.72363 17.5838 10.4105 277.639 86.954 -41.6197
lowerback 17.2476 -0.361496 -1.27951
upperback -1.32403 -0.539699 1.65002
thorax -11.1548 -0.105117 2.68198
lowerneck 3.32725 -8.00924 -11.8343
upperneck 21.1751 -10.9845 4.13788
head 6.85266 -5.72846 2.70031
rclavicle -3.97569e-015 -1.98785e-016
rhumerus 55.662 -5.0302 -68.0443
rradius 93.1266
rwrist 9.18458
rhand 3.57163 -384.354
rfingers 7.12502
rthumb 29.0067 -412.117
lclavicle -3.97569e-015 -1.98785e-016
lhumerus 53.8261 4.22451 62.8696
lradius 94.8121
lwrist -15.805
lhand 14.4634 2.6204
lfingers 7.12502
lthumb 39.3463 28.0403
rfemur -0.688491 -2.06049 20.1071
rtibia 47.8045
rfoot -3.5202 -10.8418
rtoes 14.7879
lfemur 3.62163 7.4467 -6.04572
ltibia 50.9754
lfoot 0.000656285 -4.87645
ltoes 2.88621
